<?xml version="1.0" encoding="UTF-8"?><svg id="katman_2" xmlns="http://www.w3.org/2000/svg" viewBox="0 0 72.03 60"><defs><style>.cls-1{fill:#e9b381;}.cls-1,.cls-2,.cls-3,.cls-4,.cls-5,.cls-6,.cls-7,.cls-8,.cls-9,.cls-10,.cls-11,.cls-12,.cls-13,.cls-14,.cls-15,.cls-16,.cls-17,.cls-18,.cls-19,.cls-20,.cls-21,.cls-22,.cls-23,.cls-24,.cls-25,.cls-26,.cls-27,.cls-28,.cls-29,.cls-30,.cls-31,.cls-32,.cls-33,.cls-34,.cls-35,.cls-36,.cls-37,.cls-38,.cls-39,.cls-40,.cls-41,.cls-42,.cls-43,.cls-44,.cls-45,.cls-46,.cls-47,.cls-48,.cls-49,.cls-50,.cls-51,.cls-52,.cls-53,.cls-54,.cls-55,.cls-56,.cls-57,.cls-58,.cls-59,.cls-60,.cls-61,.cls-62,.cls-63,.cls-64,.cls-65,.cls-66,.cls-67,.cls-68,.cls-69,.cls-70,.cls-71,.cls-72,.cls-73,.cls-74,.cls-75,.cls-76,.cls-77,.cls-78,.cls-79,.cls-80,.cls-81,.cls-82,.cls-83,.cls-84,.cls-85,.cls-86,.cls-87,.cls-88,.cls-89,.cls-90,.cls-91,.cls-92,.cls-93,.cls-94,.cls-95,.cls-96,.cls-97,.cls-98,.cls-99,.cls-100,.cls-101,.cls-102,.cls-103,.cls-104,.cls-105,.cls-106,.cls-107,.cls-108,.cls-109,.cls-110,.cls-111,.cls-112,.cls-113,.cls-114,.cls-115,.cls-116,.cls-117,.cls-118,.cls-119{fill-rule:evenodd;}.cls-2{fill:#e5a770;}.cls-3{fill:#de8a41;}.cls-4{fill:#f3d4b4;}.cls-5{fill:#df924f;}.cls-6{fill:#f6dfc6;}.cls-7{fill:#e6a970;}.cls-8{fill:#e39d61;}.cls-9{fill:#dc853a;}.cls-10{fill:#ecbd90;}.cls-11{fill:#e0914c;}.cls-12{fill:#f2d2b3;}.cls-13{fill:#de8c46;}.cls-14{fill:#f4d9be;}.cls-15{fill:#fff;}.cls-16{fill:#f4d9bc;}.cls-17{fill:#faecdf;}.cls-18{fill:#e29b5d;}.cls-19{fill:#e09552;}.cls-20{fill:#df904a;}.cls-21{fill:#e09554;}.cls-22{fill:#f8e8d4;}.cls-23{fill:#fdf8f1;}.cls-24{fill:#f0cca8;}.cls-25{fill:#dd8841;}.cls-26{fill:#e09555;}.cls-27{fill:#e6ab74;}.cls-28{fill:#f1d0ae;}.cls-29{fill:#e4a367;}.cls-30{fill:#e6ab75;}.cls-31{fill:#fcf5ed;}.cls-32{fill:#e8b17e;}.cls-33{fill:#e09351;}.cls-34{fill:#eec399;}.cls-35{fill:#f6e1ca;}.cls-36{fill:#edc195;}.cls-37{fill:#df8e4a;}.cls-38{fill:#fbf0e3;}.cls-39{fill:#faecdd;}.cls-40{fill:#e8af7b;}.cls-41{fill:#fffffb;}.cls-42{fill:#f4dbc0;}.cls-43{fill:#e39d5f;}.cls-44{fill:#f8e5d1;}.cls-45{fill:#e29959;}.cls-46{fill:#ecbf93;}.cls-47{fill:#dd883f;}.cls-48{fill:#e6a972;}.cls-49{fill:#ebbb8c;}.cls-50{fill:#ebb989;}.cls-51{fill:#f3d6b8;}.cls-52{fill:#e29b5b;}.cls-53{fill:#faecdc;}.cls-54{fill:#dc8539;}.cls-55{fill:#fbf1e7;}.cls-56{fill:#eec69f;}.cls-57{fill:#f6e1cc;}.cls-58{fill:#de8a43;}.cls-59{fill:#efc89f;}.cls-60{fill:#fcf5ef;}.cls-61{fill:#f3d4b5;}.cls-62{fill:#f5ddc3;}.cls-63{fill:#e4a36a;}.cls-64{fill:#faeee0;}.cls-65{fill:#e8b17d;}.cls-66{fill:#e4a369;}.cls-67{fill:#fdf8f3;}.cls-68{fill:#efc8a1;}.cls-69{fill:#ecbd8f;}.cls-70{fill:#f9ead9;}.cls-71{fill:#fcf3e8;}.cls-72{fill:#e39f64;}.cls-120{fill:none;}.cls-73{fill:#e8af79;}.cls-74{fill:#e5a56c;}.cls-75{fill:#eec69d;}.cls-76{fill:#efcaa3;}.cls-77{fill:#e4a166;}.cls-78{fill:#f1ceaa;}.cls-79{fill:#eab788;}.cls-80{fill:#e19757;}.cls-81{fill:#dc8337;}.cls-82{fill:#eec397;}.cls-83{fill:#e2995b;}.cls-84{fill:#e7ad77;}.cls-85{fill:#de8a44;}.cls-86{fill:#fefbf6;}.cls-87{fill:#e39f63;}.cls-88{fill:#f6dfc7;}.cls-89{fill:#e8b17b;}.cls-90{fill:#df8e48;}.cls-91{fill:#fbf1e5;}.cls-92{fill:#f0cca6;}.cls-93{fill:#f3d4b7;}.cls-94{fill:#df8e47;}.cls-95{fill:#eab786;}.cls-96{fill:#db8137;}.cls-97{fill:#f7e3cd;}.cls-98{fill:#f8e8d8;}.cls-99{fill:#dd873e;}.cls-100{fill:#e19756;}.cls-101{fill:#e9b583;}.cls-102{fill:#f4dbbf;}.cls-103{fill:#f8e8d6;}.cls-104{fill:#e5a76e;}.cls-105{fill:#fcf3ea;}.cls-106{fill:#f2d2b1;}.cls-107{fill:#f4d8ba;}.cls-108{fill:#eec59b;}.cls-109{fill:#f7e3cf;}.cls-110{fill:#f1d0ad;}.cls-111{fill:#db8135;}.cls-112{fill:#e9b584;}.cls-113{fill:#fdf8f5;}.cls-114{fill:#dc853c;}.cls-115{fill:#e0914e;}.cls-117{fill:#ebb98a;}.cls-118{fill:#edc196;}.cls-119{fill:#f7e3d0;}</style></defs><g id="katman_1"><rect class="cls-120" width="72.03" height="60"/><rect class="cls-120" x="9.66" width="50.88" height="60"/><path class="cls-116" d="M12.76,24.02h-2.23v7.78h2.21c1.19,0,2.03-.26,2.79-.9,.87-.73,1.42-1.83,1.42-2.99,0-2.29-1.71-3.89-4.18-3.89h0Zm1.77,5.86c-.49,.41-1.1,.61-2.09,.61h-.41v-5.14h.41c.99,0,1.57,.17,2.09,.61,.52,.46,.84,1.19,.84,1.94,0,.75-.32,1.51-.84,1.97Zm3.1,1.92h1.51v-7.78h-1.51v7.78Zm5.22-4.79c-.93-.35-1.19-.55-1.19-.99,0-.49,.49-.84,1.13-.84,.46,0,.84,.17,1.22,.61l.81-1.02c-.67-.58-1.45-.87-2.29-.87-1.39,0-2.44,.96-2.44,2.23,0,1.07,.49,1.6,1.92,2.12,.61,.2,.9,.35,1.04,.44,.32,.2,.46,.49,.46,.81,0,.64-.49,1.1-1.19,1.1s-1.31-.38-1.65-1.04l-.96,.96c.7,1.02,1.54,1.48,2.7,1.48,1.57,0,2.67-1.04,2.67-2.55,0-1.25-.52-1.8-2.23-2.44Zm2.7,.9c0,2.29,1.8,4.06,4.12,4.06,.64,0,1.22-.12,1.89-.44v-1.8c-.61,.61-1.13,.87-1.83,.87-1.51,0-2.61-1.13-2.61-2.7,0-1.48,1.13-2.67,2.55-2.67,.73,0,1.28,.26,1.89,.87v-1.77c-.64-.35-1.19-.49-1.86-.49-2.29,0-4.15,1.83-4.15,4.06h0Z"/><path class="cls-111" d="M36.29,23.84c-2.29,0-4.15,1.8-4.15,4,0,2.38,1.77,4.12,4.15,4.12s4.15-1.77,4.15-4.06c0-2.26-1.8-4.06-4.15-4.06Z"/><path class="cls-111" d="M36.29,23.84c-2.29,0-4.15,1.8-4.15,4,0,2.38,1.77,4.12,4.15,4.12s4.15-1.77,4.15-4.06c0-2.26-1.8-4.06-4.15-4.06Zm0,4.06h0Z"/><path class="cls-111" d="M36.29,27.9h4.15c0-2.26-1.8-4.06-4.15-4.06s-4.15,1.8-4.15,4c0,2.38,1.77,4.12,4.15,4.12s4.15-1.77,4.15-4.06h-4.15Z"/><path class="cls-96" d="M36.29,27.9h4.15c0-2.26-1.8-4.06-4.15-4.06s-4.15,1.8-4.15,4c0,2.38,1.77,4.12,4.15,4.12s4.15-1.77,4.15-4.06h-4.15Z"/><path class="cls-81" d="M36.29,27.9h4.15c0-2.26-1.8-4.06-4.15-4.06s-4.15,1.8-4.15,4c0,2.38,1.77,4.12,4.15,4.12s4.15-1.77,4.15-4.06h-4.15Z"/><path class="cls-54" d="M36.29,27.9h4.15c0-2.26-1.8-4.06-4.15-4.06s-4.15,1.8-4.15,4c0,2.38,1.77,4.12,4.15,4.12s4.15-1.77,4.15-4.06h-4.15Z"/><path class="cls-9" d="M36.29,27.9h4.15c0-2.26-1.8-4.06-4.15-4.06s-4.15,1.8-4.15,4c0,2.38,1.77,4.12,4.15,4.12s4.15-1.77,4.15-4.06h-4.15Z"/><path class="cls-114" d="M36.29,27.9h4.15c0-2.26-1.8-4.06-4.15-4.06s-4.15,1.8-4.15,4c0,2.38,1.77,4.12,4.15,4.12s4.15-1.77,4.15-4.06h-4.15Z"/><path class="cls-99" d="M36.29,27.9h4.15c0-2.26-1.8-4.06-4.15-4.06s-4.15,1.8-4.15,4c0,2.38,1.77,4.12,4.15,4.12s4.15-1.77,4.15-4.06h-4.15Z"/><path class="cls-99" d="M36.29,27.9h4.15c0-2.26-1.8-4.06-4.15-4.06s-4.15,1.8-4.15,4c0,2.38,1.77,4.12,4.15,4.12s4.15-1.77,4.15-4.06h-4.15Z"/><path class="cls-47" d="M36.29,27.9h4.15c0-2.26-1.8-4.06-4.15-4.06s-4.15,1.8-4.15,4c0,2.38,1.77,4.12,4.15,4.12s4.15-1.77,4.15-4.06h-4.15Z"/><path class="cls-25" d="M36.29,27.9h4.15c0-2.26-1.8-4.06-4.15-4.06s-4.15,1.8-4.15,4c0,2.38,1.77,4.12,4.15,4.12s4.15-1.77,4.15-4.06h-4.15Z"/><path class="cls-3" d="M36.29,27.9h4.15c0-2.26-1.8-4.06-4.15-4.06s-4.15,1.8-4.15,4c0,2.38,1.77,4.12,4.15,4.12s4.15-1.77,4.15-4.06h-4.15Z"/><path class="cls-58" d="M36.29,27.9h4.15c0-2.26-1.8-4.06-4.15-4.06s-4.15,1.8-4.15,4c0,2.38,1.77,4.12,4.15,4.12s4.15-1.77,4.15-4.06h-4.15Z"/><path class="cls-85" d="M36.29,27.9h4.15c0-2.26-1.8-4.06-4.15-4.06s-4.15,1.8-4.15,4c0,2.38,1.77,4.12,4.15,4.12s4.15-1.77,4.15-4.06h-4.15Z"/><path class="cls-13" d="M36.29,27.9h4.15c0-2.26-1.8-4.06-4.15-4.06s-4.15,1.8-4.15,4c0,2.38,1.77,4.12,4.15,4.12s4.15-1.77,4.15-4.06h-4.15Z"/><path class="cls-94" d="M36.29,27.9h0Zm4.15,0s0-.07,0-.11h0s0-.07,0-.11h0s0-.07,0-.1h0s0-.07,0-.1h0s0-.07-.01-.1h0s0-.06-.01-.09h0s0-.07-.02-.1h0v-.06l-.02-.06v-.03s-.02-.05-.02-.07v-.03l-.02-.07-.02-.06v-.03s-.02-.04-.03-.06v-.03c-.52-1.66-2.07-2.84-3.98-2.84-1.68,0-3.12,.97-3.78,2.35-.24,.53-.37,1.1-.37,1.69,0,.5,.09,.98,.24,1.41v.04l.02,.02c.16,.43,.39,.84,.69,1.2,.75,.89,1.88,1.43,3.21,1.43,1.89,0,3.45-1.17,3.97-2.84l.03-.09h0c.08-.27,.12-.54,.15-.82h0s0-.07,0-.11h0c0-.07,0-.14,0-.21Z"/><path class="cls-90" d="M36.29,27.9h4.12c0-1.58-.9-2.94-2.22-3.63-.57-.28-1.21-.43-1.9-.43-.89,0-1.72,.27-2.39,.73-1.04,.74-1.73,1.95-1.73,3.33,0,1.51,.83,2.84,2.05,3.56,.6,.32,1.3,.5,2.07,.5,.97,0,1.85-.31,2.54-.83,.96-.76,1.58-1.93,1.58-3.23h-4.12Z"/><path class="cls-37" d="M36.29,27.9h4.06c0-2.23-1.83-4.06-4.06-4.06-.04,0-.07,0-.1,0h0c-2.19,.06-3.96,1.86-3.96,4.06,0,1.74,1.1,3.3,2.75,3.87,.41,.12,.85,.19,1.32,.19,.57,0,1.1-.11,1.59-.3,1.5-.65,2.47-2.13,2.47-3.76h-4.06Z"/><path class="cls-20" d="M36.29,27.9h4.03c0-2.21-1.8-4.03-4.03-4.03s-4.03,1.83-4.03,4.03c0,2.22,1.79,4.03,4.02,4.03,0,0,.01,0,.02,0,2.22,0,4.03-1.79,4.03-4.02,0,0,0-.01,0-.02h-4.03Z"/><path class="cls-11" d="M36.29,27.9h4c0-2.21-1.8-3.98-4-3.98s-4,1.77-4,3.98,1.8,4,4,4,4-1.8,4-4h-4Z"/><path class="cls-115" d="M36.29,27.9h3.97c0-2.18-1.8-3.95-3.97-3.95s-3.98,1.77-3.98,3.95,1.8,3.98,3.98,3.98,3.97-1.77,3.97-3.98h-3.97Z"/><path class="cls-5" d="M36.29,27.9h3.92c0-2.15-1.74-3.92-3.92-3.92s-3.92,1.77-3.92,3.92,1.74,3.95,3.92,3.95,3.92-1.77,3.92-3.95h-3.92Z"/><path class="cls-33" d="M36.29,27.9h3.89c0-2.15-1.74-3.89-3.89-3.89s-3.89,1.74-3.89,3.89,1.74,3.89,3.89,3.89,3.89-1.74,3.89-3.89h-3.89Z"/><path class="cls-19" d="M36.29,27.9h3.86c0-2.12-1.74-3.83-3.86-3.83s-3.86,1.71-3.86,3.83,1.74,3.86,3.86,3.86,3.86-1.71,3.86-3.86h-3.86Z"/><path class="cls-21" d="M36.29,27.9h3.8c0-2.09-1.68-3.8-3.8-3.8s-3.83,1.71-3.83,3.8,1.71,3.83,3.83,3.83,3.8-1.71,3.8-3.83h-3.8Z"/><path class="cls-26" d="M36.29,27.9h3.77c0-2.08-1.68-3.77-3.76-3.77,0,0,0,0-.01,0-2.08,0-3.77,1.68-3.77,3.76,0,0,0,0,0,.01,0,2.09,1.68,3.8,3.77,3.8s3.77-1.71,3.77-3.8h-3.77Z"/><path class="cls-100" d="M36.29,27.9h3.74c0-2.06-1.68-3.74-3.74-3.74s-3.74,1.68-3.74,3.74,1.68,3.74,3.74,3.74c2.06,0,3.74-1.66,3.74-3.72,0,0,0-.01,0-.02h-3.74Z"/><path class="cls-80" d="M36.29,27.9h3.71c0-2.03-1.65-3.69-3.71-3.69s-3.71,1.65-3.71,3.69c0,2.04,1.65,3.71,3.69,3.71,0,0,.02,0,.02,0,2.04,0,3.71-1.65,3.71-3.69,0,0,0-.02,0-.02h-3.71Z"/><path class="cls-45" d="M36.29,27.9h3.66c0-2.03-1.63-3.66-3.66-3.66s-3.69,1.63-3.69,3.66,1.65,3.69,3.69,3.69,3.66-1.65,3.66-3.69h-3.66Z"/><path class="cls-83" d="M36.29,27.9h3.63c0-2-1.63-3.63-3.63-3.63s-3.63,1.62-3.63,3.63,1.63,3.66,3.63,3.66,3.63-1.65,3.63-3.66h-3.63Z"/><path class="cls-52" d="M36.29,27.9h3.6c0-1.97-1.63-3.6-3.6-3.6s-3.6,1.63-3.6,3.6,1.63,3.6,3.6,3.6,3.6-1.6,3.6-3.6h-3.6Z"/><path class="cls-18" d="M36.29,27.9h3.57c0-1.94-1.6-3.54-3.57-3.54s-3.57,1.6-3.57,3.54,1.6,3.57,3.57,3.57,3.57-1.6,3.57-3.57h-3.57Z"/><path class="cls-43" d="M36.29,27.9h3.51c0-1.94-1.56-3.51-3.5-3.51,0,0,0,0-.01,0-1.94,0-3.51,1.57-3.51,3.51s1.57,3.54,3.51,3.54,3.51-1.6,3.51-3.54h-3.51Z"/><path class="cls-8" d="M36.29,27.9h3.48c0-1.92-1.57-3.48-3.48-3.48s-3.48,1.57-3.48,3.48,1.57,3.51,3.48,3.51,3.48-1.57,3.48-3.51h-3.48Z"/><path class="cls-87" d="M36.29,27.9h3.45c0-1.89-1.54-3.45-3.45-3.45s-3.45,1.57-3.45,3.45,1.54,3.45,3.45,3.45,3.45-1.54,3.45-3.45h-3.45Z"/><path class="cls-87" d="M36.29,27.9h3.42c0-1.89-1.54-3.39-3.42-3.39s-3.42,1.51-3.42,3.39,1.54,3.42,3.42,3.42,3.42-1.54,3.42-3.42h-3.42Z"/><path class="cls-72" d="M36.29,27.9h3.37c0-1.86-1.51-3.37-3.37-3.37s-3.37,1.51-3.37,3.37,1.51,3.39,3.37,3.39,3.37-1.51,3.37-3.39h-3.37Z"/><path class="cls-77" d="M36.29,27.9h3.34c0-1.83-1.48-3.34-3.34-3.34s-3.34,1.51-3.34,3.34,1.48,3.37,3.34,3.37,3.34-1.51,3.34-3.37h-3.34Z"/><path class="cls-29" d="M36.29,27.9h3.31c0-1.83-1.48-3.31-3.31-3.31s-3.31,1.48-3.31,3.31,1.48,3.31,3.31,3.31,3.31-1.48,3.31-3.31h-3.31Z"/><path class="cls-66" d="M36.29,27.9h3.28c0-1.8-1.48-3.25-3.28-3.25s-3.28,1.45-3.28,3.25,1.48,3.28,3.28,3.28,3.28-1.45,3.28-3.28h-3.28Z"/><path class="cls-63" d="M36.29,27.9h3.22c0-1.77-1.42-3.22-3.22-3.22s-3.22,1.45-3.22,3.22,1.42,3.25,3.22,3.25,3.22-1.45,3.22-3.25h-3.22Z"/><path class="cls-74" d="M36.29,27.9h3.19c0-1.76-1.42-3.19-3.17-3.19,0,0-.01,0-.02,0-1.76,0-3.19,1.42-3.19,3.17,0,0,0,.01,0,.02,0,1.77,1.42,3.22,3.19,3.22s3.19-1.45,3.19-3.22h-3.19Z"/><path class="cls-74" d="M36.29,27.9h3.16c0-1.74-1.42-3.16-3.16-3.16s-3.16,1.42-3.16,3.16,1.42,3.16,3.16,3.16,3.16-1.42,3.16-3.16h-3.16Z"/><path class="cls-104" d="M36.29,27.9h3.13c0-1.71-1.42-3.1-3.13-3.1s-3.13,1.39-3.13,3.1,1.42,3.13,3.13,3.13,3.13-1.39,3.13-3.13h-3.13Z"/><path class="cls-2" d="M36.29,27.9h3.08c0-1.68-1.36-3.08-3.08-3.08s-3.08,1.39-3.08,3.08,1.36,3.1,3.08,3.1,3.08-1.39,3.08-3.1h-3.08Z"/><path class="cls-7" d="M36.29,27.9h3.05c0-1.68-1.36-3.05-3.05-3.05s-3.05,1.36-3.05,3.05,1.36,3.05,3.05,3.05,3.05-1.36,3.05-3.05h-3.05Z"/><path class="cls-48" d="M36.29,27.9h3.02c0-1.65-1.36-3.02-3.02-3.02s-3.02,1.36-3.02,3.02,1.36,3.02,3.02,3.02,3.02-1.33,3.02-3.02h-3.02Z"/><path class="cls-27" d="M36.29,27.9h2.99c0-1.62-1.34-2.96-2.99-2.96s-2.99,1.33-2.99,2.96c0,1.65,1.33,2.99,2.98,2.99h0c1.65,0,2.99-1.33,2.99-2.98h-2.99Z"/><path class="cls-30" d="M36.29,27.9h2.93c0-1.61-1.3-2.93-2.91-2.93,0,0-.01,0-.02,0-1.61,0-2.93,1.3-2.93,2.91,0,0,0,.01,0,.02,0,1.63,1.31,2.96,2.93,2.96s2.93-1.33,2.93-2.96h-2.93Z"/><path class="cls-84" d="M36.29,27.9h2.9c0-1.6-1.31-2.9-2.9-2.9s-2.9,1.31-2.9,2.9,1.31,2.9,2.9,2.9c1.6,0,2.9-1.28,2.9-2.88,0,0,0-.01,0-.02h-2.9Z"/><path class="cls-84" d="M36.29,27.9h2.87c0-1.57-1.28-2.87-2.87-2.87s-2.87,1.31-2.87,2.87,1.28,2.87,2.87,2.87c1.58,0,2.87-1.27,2.87-2.85,0,0,0-.02,0-.02h-2.87Z"/><path class="cls-73" d="M36.29,27.9h2.84c0-1.57-1.28-2.81-2.84-2.81s-2.84,1.25-2.84,2.81,1.28,2.84,2.84,2.84,2.84-1.28,2.84-2.84h-2.84Z"/><path class="cls-40" d="M36.29,27.9h2.79c0-1.54-1.25-2.79-2.79-2.79s-2.79,1.25-2.79,2.79,1.25,2.81,2.79,2.81,2.79-1.25,2.79-2.81h-2.79Z"/><path class="cls-89" d="M36.29,27.9h2.76c0-1.51-1.22-2.76-2.76-2.76s-2.76,1.25-2.76,2.76,1.22,2.76,2.76,2.76,2.76-1.22,2.76-2.76h-2.76Z"/><path class="cls-65" d="M36.29,27.9h2.73c0-1.5-1.22-2.73-2.72-2.73h0c-1.5,0-2.73,1.22-2.73,2.72h0c0,1.51,1.22,2.73,2.72,2.73h0c1.5,0,2.73-1.22,2.73-2.72h-2.73Z"/><path class="cls-32" d="M36.29,27.9h2.7c0-1.48-1.22-2.67-2.7-2.67s-2.7,1.19-2.7,2.67,1.22,2.7,2.7,2.7,2.7-1.22,2.7-2.7h-2.7Z"/><path class="cls-1" d="M36.29,27.9h2.64c0-1.45-1.19-2.64-2.64-2.64-1.45,0-2.64,1.17-2.64,2.62,0,0,0,.01,0,.02,0,1.48,1.16,2.67,2.64,2.67s2.64-1.19,2.64-2.67h-2.64Z"/><path class="cls-1" d="M36.29,27.9h2.61c0-1.44-1.15-2.61-2.59-2.61,0,0-.01,0-.02,0-1.44,0-2.61,1.15-2.61,2.59,0,0,0,.01,0,.02,0,1.44,1.15,2.61,2.59,2.61,0,0,.01,0,.02,0,1.44,0,2.61-1.15,2.61-2.59,0,0,0-.01,0-.02h-2.61Z"/><path class="cls-101" d="M36.29,27.9h2.58c0-1.42-1.16-2.58-2.58-2.58s-2.58,1.16-2.58,2.58,1.16,2.58,2.58,2.58,2.58-1.16,2.58-2.58h-2.58Z"/><path class="cls-112" d="M36.29,27.9h2.55c0-1.39-1.16-2.52-2.55-2.52s-2.55,1.13-2.55,2.52,1.16,2.55,2.55,2.55,2.55-1.13,2.55-2.55h-2.55Z"/><path class="cls-95" d="M36.29,27.9h2.5c0-1.36-1.1-2.5-2.5-2.5s-2.5,1.13-2.5,2.5,1.1,2.52,2.5,2.52,2.5-1.13,2.5-2.52h-2.5Z"/><path class="cls-79" d="M36.29,27.9h2.47c0-1.36-1.1-2.47-2.46-2.47h0c-1.36,0-2.47,1.1-2.47,2.47s1.1,2.47,2.47,2.47c1.36,0,2.47-1.1,2.47-2.46h-2.47Z"/><path class="cls-50" d="M36.29,27.9h2.44c0-1.33-1.1-2.44-2.44-2.44s-2.44,1.1-2.44,2.44,1.1,2.44,2.44,2.44,2.44-1.07,2.44-2.44h-2.44Z"/><path class="cls-117" d="M36.29,27.9h2.41c0-1.31-1.07-2.38-2.41-2.38s-2.41,1.07-2.41,2.38c0,1.33,1.07,2.41,2.4,2.41,0,0,0,0,.01,0,1.33,0,2.41-1.07,2.41-2.4,0,0,0,0,0-.01h-2.41Z"/><path class="cls-49" d="M36.29,27.9h2.35c0-1.29-1.04-2.34-2.33-2.35,0,0-.01,0-.02,0-1.31,0-2.35,1.04-2.35,2.35s1.04,2.38,2.35,2.38,2.35-1.07,2.35-2.38h-2.35Z"/><path class="cls-49" d="M36.29,27.9h2.32c0-1.28-1.04-2.32-2.32-2.32s-2.32,1.04-2.32,2.32,1.04,2.32,2.32,2.32,2.32-1.02,2.32-2.32h-2.32Z"/><path class="cls-69" d="M36.29,27.9h2.29c0-1.25-1.02-2.29-2.29-2.29s-2.29,1.04-2.29,2.29c0,1.26,1.01,2.28,2.27,2.29,0,0,.02,0,.03,0,1.26,0,2.28-1.01,2.29-2.26,0,0,0-.02,0-.03h-2.29Z"/><path class="cls-10" d="M36.29,27.9h2.26c0-1.25-1.02-2.23-2.26-2.23s-2.26,.99-2.26,2.23,1.02,2.26,2.26,2.26,2.26-1.02,2.26-2.26h-2.26Z"/><path class="cls-46" d="M36.29,27.9h2.2c0-1.22-.99-2.2-2.2-2.21h0c-1.22,0-2.2,.99-2.21,2.2h0c0,1.22,.99,2.24,2.21,2.24s2.2-1.02,2.2-2.23h-2.2Z"/><path class="cls-46" d="M36.29,27.9h2.18c0-1.19-.99-2.18-2.18-2.18s-2.18,.99-2.18,2.18,.96,2.18,2.18,2.18,2.18-.96,2.18-2.18h-2.18Z"/><path class="cls-36" d="M36.29,27.9h2.15c0-1.19-.96-2.15-2.15-2.15s-2.15,.96-2.15,2.15,.96,2.15,2.15,2.15c1.18,0,2.14-.95,2.15-2.14h-2.15Z"/><path class="cls-118" d="M36.29,27.9h2.12c0-1.16-.96-2.09-2.12-2.09s-2.12,.93-2.12,2.09,.96,2.12,2.12,2.12,2.12-.96,2.12-2.12h-2.12Z"/><path class="cls-82" d="M36.29,27.9h2.06c0-1.13-.93-2.06-2.06-2.06s-2.06,.93-2.06,2.06,.93,2.09,2.06,2.09,2.06-.93,2.06-2.09h-2.06Z"/><path class="cls-34" d="M36.29,27.9h2.03c0-1.1-.9-2.03-2.03-2.03s-2.03,.93-2.03,2.03c0,1.11,.89,2.02,2.01,2.03,0,0,.02,0,.03,0,1.11,0,2.02-.89,2.03-2.01,0,0,0-.02,0-.03h-2.03Z"/><path class="cls-108" d="M36.29,27.9h2c0-1.1-.9-2-2-2s-2,.9-2,2,.9,2,2,2,2-.9,2-2h-2Z"/><path class="cls-75" d="M36.29,27.9h1.97c0-1.07-.9-1.94-1.97-1.94s-1.97,.87-1.97,1.94,.9,1.97,1.97,1.97,1.97-.87,1.97-1.97h-1.97Z"/><path class="cls-56" d="M36.29,27.9h1.91c0-1.04-.84-1.92-1.91-1.92s-1.92,.87-1.92,1.92,.84,1.94,1.92,1.94,1.91-.87,1.91-1.94h-1.91Z"/><path class="cls-59" d="M36.29,27.9h1.89c0-1.04-.84-1.88-1.88-1.89h0c-1.04,0-1.88,.84-1.89,1.88h0c0,1.05,.84,1.89,1.88,1.89h0c1.04,0,1.88-.84,1.89-1.88h-1.89Z"/><path class="cls-68" d="M36.29,27.9h1.86c0-1.02-.84-1.86-1.86-1.86s-1.86,.84-1.86,1.86c0,1.02,.82,1.85,1.85,1.86h.01c1.02,0,1.85-.82,1.86-1.85h-1.86Z"/><path class="cls-76" d="M36.29,27.9h1.83c0-.99-.81-1.8-1.83-1.8s-1.83,.81-1.83,1.8c0,1.01,.81,1.82,1.81,1.83,0,0,.01,0,.02,0,1.01,0,1.82-.81,1.83-1.81,0,0,0,0,0-.01h-1.83Z"/><path class="cls-76" d="M36.29,27.9h1.77c0-.97-.78-1.76-1.75-1.77,0,0-.02,0-.02,0-.97,0-1.76,.78-1.77,1.75,0,0,0,.02,0,.02,0,.99,.78,1.8,1.77,1.8s1.77-.81,1.77-1.8h-1.77Z"/><path class="cls-92" d="M36.29,27.9h1.74c0-.96-.78-1.74-1.74-1.74s-1.74,.78-1.74,1.74,.78,1.74,1.74,1.74,1.74-.78,1.74-1.74h-1.74Z"/><path class="cls-24" d="M36.29,27.9h1.71c0-.93-.78-1.71-1.71-1.71s-1.71,.78-1.71,1.71,.75,1.71,1.71,1.71,1.71-.75,1.71-1.71h-1.71Z"/><path class="cls-78" d="M36.29,27.9h1.68c0-.93-.75-1.65-1.68-1.65s-1.68,.73-1.68,1.65c0,.93,.75,1.68,1.68,1.68,.93,0,1.68-.75,1.68-1.68h-1.68Z"/><path class="cls-78" d="M36.29,27.9h1.62c0-.9-.72-1.62-1.62-1.62h0c-.9,0-1.63,.73-1.63,1.62s.73,1.65,1.63,1.65,1.62-.75,1.62-1.65h-1.62Z"/><path class="cls-110" d="M36.29,27.9h1.6c0-.87-.73-1.6-1.6-1.6s-1.6,.73-1.6,1.6c0,.88,.71,1.59,1.59,1.6h0c.88,0,1.59-.71,1.6-1.59h-1.6Z"/><path class="cls-28" d="M36.29,27.9h1.57c0-.84-.7-1.57-1.57-1.57s-1.57,.73-1.57,1.57c0,.86,.69,1.56,1.55,1.57,0,0,0,0,.01,0,.86,0,1.56-.69,1.57-1.55,0,0,0,0,0-.01h-1.57Z"/><path class="cls-106" d="M36.29,27.9h1.54c0-.84-.7-1.51-1.54-1.51s-1.54,.67-1.54,1.51,.7,1.54,1.54,1.54,1.54-.7,1.54-1.54h-1.54Z"/><path class="cls-12" d="M36.29,27.9h1.48c0-.81-.67-1.48-1.48-1.48s-1.48,.67-1.48,1.48,.67,1.51,1.48,1.51,1.48-.67,1.48-1.51h-1.48Z"/><path class="cls-4" d="M36.29,27.9h1.45c0-.78-.64-1.45-1.45-1.45s-1.45,.67-1.45,1.45,.64,1.45,1.45,1.45,1.45-.64,1.45-1.45h-1.45Z"/><path class="cls-61" d="M36.29,27.9h1.42c0-.78-.64-1.42-1.42-1.42-.78,0-1.42,.64-1.42,1.42s.64,1.42,1.42,1.42c.78,0,1.42-.64,1.42-1.42h-1.42Z"/><path class="cls-93" d="M36.29,27.9h1.39c0-.75-.64-1.36-1.39-1.36s-1.39,.61-1.39,1.36,.64,1.39,1.39,1.39,1.39-.61,1.39-1.39h-1.39Z"/><path class="cls-51" d="M36.29,27.9h1.33c0-.74-.59-1.33-1.33-1.33h0c-.74,0-1.33,.59-1.34,1.33h0c0,.76,.58,1.37,1.34,1.37s1.33-.61,1.33-1.36h-1.33Z"/><path class="cls-107" d="M36.29,27.9h1.31c0-.72-.58-1.3-1.29-1.31h-.01c-.73,0-1.31,.58-1.31,1.31s.58,1.31,1.31,1.31c.72,0,1.3-.58,1.31-1.3h-1.31Z"/><path class="cls-16" d="M36.29,27.9h1.28c0-.7-.58-1.28-1.28-1.28s-1.28,.58-1.28,1.28,.58,1.28,1.28,1.28,1.28-.55,1.28-1.28h-1.28Z"/><path class="cls-14" d="M36.29,27.9h1.25c0-.67-.55-1.22-1.25-1.22s-1.25,.55-1.25,1.22,.55,1.25,1.25,1.25,1.25-.55,1.25-1.25h-1.25Z"/><path class="cls-102" d="M36.29,27.9h1.19c0-.67-.52-1.19-1.19-1.19s-1.19,.52-1.19,1.19,.52,1.22,1.19,1.22,1.19-.55,1.19-1.22h-1.19Z"/><path class="cls-42" d="M36.29,27.9h1.16c0-.64-.52-1.16-1.16-1.16-.64,0-1.16,.52-1.16,1.16s.52,1.16,1.16,1.16c.64,0,1.16-.52,1.16-1.16h-1.16Z"/><path class="cls-62" d="M36.29,27.9h1.13c0-.61-.52-1.13-1.13-1.13s-1.13,.52-1.13,1.13,.52,1.13,1.13,1.13,1.13-.49,1.13-1.13h-1.13Z"/><path class="cls-62" d="M36.29,27.9h1.1c0-.58-.49-1.07-1.1-1.07s-1.1,.49-1.1,1.07c0,.61,.49,1.1,1.1,1.1s1.1-.49,1.1-1.1h-1.1Z"/><path class="cls-6" d="M36.29,27.9h1.04c0-.58-.46-1.04-1.04-1.04s-1.04,.46-1.04,1.04,.46,1.07,1.04,1.07,1.04-.49,1.04-1.07h-1.04Z"/><path class="cls-88" d="M36.29,27.9h1.02c0-.55-.46-1.02-1.02-1.02s-1.02,.46-1.02,1.02c0,.58,.46,1.02,1.02,1.02s1.02-.44,1.02-1.02h-1.02Z"/><path class="cls-35" d="M36.29,27.9h.99c0-.52-.44-.99-.99-.99s-.99,.46-.99,.99c0,.54,.43,.98,.97,.99,0,0,.01,0,.02,0,.54,0,.98-.43,.99-.97,0,0,0-.01,0-.02h-.99Z"/><path class="cls-57" d="M36.29,27.9h.96c0-.52-.44-.93-.96-.93s-.96,.41-.96,.93,.44,.96,.96,.96,.96-.44,.96-.96h-.96Z"/><path class="cls-97" d="M36.29,27.9h.9c0-.5-.4-.9-.9-.9-.5,0-.9,.4-.9,.9,0,.52,.41,.93,.9,.93s.9-.41,.9-.93h-.9Z"/><path class="cls-109" d="M36.29,27.9h.87c0-.46-.38-.87-.87-.87s-.87,.41-.87,.87c0,.49,.38,.87,.87,.87s.87-.38,.87-.87h-.87Z"/><path class="cls-119" d="M36.29,27.9h.84c0-.46-.38-.84-.84-.84-.46,.01-.83,.4-.82,.86,.01,.45,.37,.81,.82,.82,.46,0,.84-.38,.84-.84h-.84Z"/><path class="cls-44" d="M36.29,27.9h.81c0-.44-.38-.78-.81-.78s-.81,.35-.81,.78c0,.45,.36,.81,.81,.81h0c.45,0,.81-.36,.81-.81h-.81Z"/><path class="cls-22" d="M36.29,27.9h.75c0-.41-.32-.75-.75-.75-.41,0-.75,.33-.75,.74h0c0,.45,.32,.79,.75,.79s.75-.35,.75-.78h-.75Z"/><path class="cls-103" d="M36.29,27.9h.72c0-.4-.31-.72-.71-.73,0,0,0,0-.01,0-.4,0-.72,.31-.73,.71,0,0,0,0,0,.01,0,.4,.31,.72,.71,.73,0,0,0,0,.01,0,.4,0,.72-.31,.72-.71,0,0,0,0,0-.01h-.72Z"/><path class="cls-98" d="M36.29,27.9h.7c0-.38-.32-.67-.7-.67s-.7,.29-.7,.67,.32,.7,.7,.7,.7-.32,.7-.7h-.7Z"/><path class="cls-70" d="M36.29,27.9h.67c0-.35-.32-.64-.67-.64s-.67,.29-.67,.64c0,.38,.32,.67,.67,.67s.67-.29,.67-.67h-.67Z"/><path class="cls-53" d="M36.29,27.9h.61c0-.32-.26-.61-.61-.61s-.61,.29-.61,.61c0,.35,.26,.64,.61,.64s.61-.29,.61-.64h-.61Z"/><path class="cls-39" d="M36.29,27.9h.58c0-.32-.26-.58-.58-.58-.32,0-.58,.26-.58,.58s.26,.58,.58,.58c.32,0,.58-.26,.58-.58h-.58Z"/><path class="cls-17" d="M36.29,27.9h.55c0-.29-.26-.52-.55-.52s-.55,.23-.55,.52c0,.32,.26,.55,.55,.55s.55-.25,.55-.55h-.55Z"/><path class="cls-64" d="M36.29,27.9h.52c0-.26-.23-.49-.52-.49s-.52,.23-.52,.49c0,.29,.23,.52,.52,.52,.29,0,.52-.23,.52-.52h-.52Z"/><path class="cls-38" d="M36.29,27.9h.46c0-.26-.2-.46-.46-.46s-.46,.2-.46,.46,.2,.49,.46,.49,.46-.23,.46-.49h-.46Z"/><path class="cls-91" d="M36.29,27.9h.44c0-.23-.2-.44-.44-.44s-.44,.2-.44,.44c0,.26,.2,.44,.44,.44s.44-.17,.44-.44h-.44Z"/><path class="cls-55" d="M36.29,27.9h.41c0-.2-.17-.38-.41-.38s-.41,.17-.41,.38c0,.23,.17,.41,.41,.41s.41-.17,.41-.41h-.41Z"/><path class="cls-71" d="M36.29,27.9h.38c0-.2-.17-.35-.38-.35s-.38,.15-.38,.35,.17,.38,.38,.38,.38-.17,.38-.38h-.38Z"/><path class="cls-105" d="M36.29,27.9h.32c0-.17-.15-.32-.32-.32s-.32,.15-.32,.32c0,.2,.15,.35,.32,.35s.32-.15,.32-.35h-.32Z"/><path class="cls-31" d="M36.29,27.9h.29c0-.15-.12-.29-.29-.29s-.29,.15-.29,.29c0,.17,.12,.29,.29,.29s.29-.12,.29-.29h-.29Z"/><path class="cls-60" d="M36.29,27.9h.26c0-.15-.12-.23-.26-.23s-.26,.09-.26,.23,.12,.26,.26,.26c.14,0,.26-.12,.26-.26h-.26Z"/><path class="cls-23" d="M36.29,27.9h.23c0-.12-.12-.2-.23-.2s-.23,.09-.23,.2,.12,.23,.23,.23,.23-.12,.23-.23h-.23Z"/><path class="cls-67" d="M36.29,27.9h.17c0-.09-.09-.17-.17-.17s-.17,.09-.17,.17c0,.12,.09,.2,.17,.2s.17-.09,.17-.2h-.17Z"/><path class="cls-113" d="M36.29,27.9h.14c0-.06-.06-.15-.14-.15s-.15,.09-.15,.15c0,.09,.06,.15,.15,.15s.14-.06,.14-.15h-.14Z"/><path class="cls-86" d="M36.29,27.9h.12c0-.06-.06-.09-.12-.09s-.12,.03-.12,.09,.06,.12,.12,.12,.12-.06,.12-.12h-.12Z"/><path class="cls-41" d="M36.29,27.9h.06s-.03-.06-.06-.06-.09,.03-.09,.06c0,.06,.06,.09,.09,.09s.06-.03,.06-.09h-.06Z"/><path class="cls-15" d="M36.29,27.9h.03s0-.03-.03-.03-.03,.03-.03,.03c0,.03,0,.06,.03,.06s.03-.03,.03-.06h-.03Z"/><path class="cls-116" d="M43.87,29.24l-2.06-5.22h-1.68l3.31,7.98h.81l3.37-7.98h-1.65l-2.09,5.22h0Zm4.44,2.55h4.29v-1.31h-2.79v-2.09h2.67v-1.33h-2.67v-1.71h2.79v-1.33h-4.29v7.78Zm10.3-5.48c0-1.45-.99-2.29-2.76-2.29h-2.23v7.78h1.51v-3.1h.2l2.09,3.1h1.86l-2.44-3.28c1.13-.23,1.77-1.02,1.77-2.21h0Zm-3.05,1.31h-.44v-2.38h.46c.96,0,1.45,.41,1.45,1.16,0,.78-.49,1.22-1.48,1.22h0Zm-44.69,6.46v.7h.86v.28h-.86v1.21h-.31v-2.47h1.2v.28h-.89Zm2.3-.28h.31v2.47h-.31v-2.47h0Zm1.8-.12l1.86,1.95v-1.83h.31v2.58l-1.86-1.95v1.84h-.31v-2.59h0Zm5.03,1.69h-.88l.44-1,.44,1Zm.13,.28l.28,.62h.33l-1.18-2.58-1.18,2.58h.33l.28-.62h1.14Zm1.85-1.97l1.86,1.95v-1.83h.31v2.58l-1.86-1.95v1.84h-.31v-2.59h0Zm5.47,.59c-.18-.16-.42-.24-.65-.24-.55,0-.98,.46-.98,1.01s.42,1,.97,1c.24,0,.48-.09,.66-.26v.37c-.2,.11-.42,.17-.65,.17-.71,0-1.29-.56-1.29-1.28s.59-1.3,1.32-1.3c.22,0,.44,.05,.62,.17v.36h0Zm1.42-.47h.31v2.47h-.31v-2.47Zm3.19,1.57h-.88l.44-1,.44,1h0Zm.13,.28l.28,.62h.33l-1.18-2.58-1.18,2.58h.33l.28-.62h1.14Zm2.19,.34h.75v.28h-1.06v-2.47h.31v2.19Zm5.13-1.72c-.09-.16-.21-.23-.4-.23s-.41,.13-.41,.35c0,.19,.19,.3,.35,.35l.18,.07c.35,.14,.62,.33,.62,.74,0,.45-.35,.77-.79,.77-.4,0-.71-.29-.76-.69l.31-.07c0,.27,.21,.47,.48,.47s.46-.22,.46-.48-.21-.38-.43-.47l-.17-.07c-.28-.12-.54-.28-.54-.63,0-.4,.35-.64,.73-.64,.27,0,.5,.14,.64,.37l-.25,.15h0Zm1.72-.47h1.33v.28h-1.02v.69h.99v.28h-.99v.94h1.02v.28h-1.33v-2.47h0Zm3.08,.28h.08c.31,0,.67,.06,.67,.44s-.34,.45-.66,.45h-.1v-.9h0Zm.45,1.12c.36-.04,.59-.34,.59-.69,0-.24-.12-.47-.33-.59-.2-.11-.43-.11-.65-.11h-.37v2.47h.31v-1.05h.13l.73,1.05h.37l-.78-1.08h0Zm2.9,.43l.74-1.83h.34l-1.07,2.61-1.08-2.61h.34l.74,1.83h0Zm2.33-1.83h.31v2.47h-.31v-2.47Zm3.64,.47c-.18-.16-.42-.24-.66-.24-.55,0-.98,.46-.98,1.01s.42,1,.97,1c.24,0,.48-.09,.66-.26v.37c-.2,.11-.42,.17-.65,.17-.71,0-1.29-.56-1.29-1.28s.59-1.3,1.32-1.3c.22,0,.44,.05,.63,.17v.36h0Zm1.43-.47h1.33v.28h-1.02v.69h.99v.28h-.99v.94h1.02v.28h-1.33v-2.47h0Zm3.87,.47c-.09-.16-.21-.23-.4-.23-.2,0-.41,.13-.41,.35,0,.19,.19,.3,.34,.35l.18,.07c.35,.14,.61,.33,.61,.74,0,.45-.35,.77-.79,.77-.4,0-.71-.29-.76-.69l.31-.07c0,.27,.21,.47,.48,.47s.46-.22,.46-.48-.22-.38-.43-.47l-.17-.07c-.28-.12-.54-.28-.54-.63,0-.4,.35-.64,.73-.64,.27,0,.5,.14,.64,.37l-.25,.15h0Zm.57-9.56c0,.06-.04,.09-.12,.09h-.03v-.18h.03c.08,0,.12,.03,.12,.09h0Zm.24,.47l-.23-.28c.1-.02,.15-.1,.15-.19,0-.13-.09-.21-.26-.21h-.22v.69h.16v-.27l.19,.27h.2Zm.29-.34c0-.33-.27-.6-.59-.6-.33,0-.6,.26-.6,.59h0c0,.34,.27,.6,.6,.6,.32,0,.59-.27,.59-.6Zm-.12,0c0,.27-.21,.49-.47,.49s-.48-.22-.48-.49,.21-.49,.48-.49,.47,.22,.47,.49Z"/></g></svg>