<?xml version="1.0" encoding="UTF-8"?><svg id="katman_2" xmlns="http://www.w3.org/2000/svg" viewBox="0 0 60 60.02"><defs><style>.cls-1{fill:#e6a540;}.cls-2{fill:#2566af;}.cls-3{fill:none;}</style></defs><g id="katman_1"><rect class="cls-3" width="60" height="60.02"/><rect class="cls-3" width="60" height="60"/><rect class="cls-3" width="60" height="60"/><g><path class="cls-2" d="M27.21,36.12h-3.43l2.14-13.17h3.43l-2.14,13.17Zm-6.31-13.17l-3.27,9.06-.39-1.95h0l-1.15-5.92s-.14-1.19-1.63-1.19h-5.4l-.06,.22s1.65,.34,3.59,1.51l2.98,11.44h3.57l5.46-13.17h-3.69Zm26.97,13.17h3.15l-2.75-13.17h-2.76c-1.27,0-1.58,.98-1.58,.98l-5.11,12.19h3.57l.71-1.96h4.36l.4,1.96h0Zm-3.77-4.66l1.8-4.93,1.01,4.93h-2.82Zm-5.01-5.34l.49-2.83s-1.51-.57-3.08-.57c-1.7,0-5.74,.74-5.74,4.36,0,3.4,4.74,3.45,4.74,5.23s-4.25,1.47-5.66,.34l-.51,2.96s1.53,.74,3.87,.74,5.87-1.21,5.87-4.51-4.79-3.74-4.79-5.23c0-1.49,3.34-1.3,4.81-.49h0Z"/><path class="cls-1" d="M17.24,30.06l-1.15-5.92s-.14-1.19-1.63-1.19h-5.4l-.06,.22s2.6,.54,5.09,2.56c2.38,1.93,3.16,4.33,3.16,4.33Z"/><path class="cls-3" d="M5.03,4.56H54.97V54.5H5.03V4.56Z"/></g><rect class="cls-3" width="60" height="60"/></g></svg>