<?xml version="1.0" encoding="UTF-8"?><svg id="katman_2" xmlns="http://www.w3.org/2000/svg" viewBox="0 0 60 60"><defs><style>.cls-1{fill:#f60;}.cls-2{fill:none;}.cls-3{fill:#609;}</style></defs><g id="katman_1"><g id="SMSA_Express-group"><path id="SMSA_Express-lshape1" class="cls-3" d="M1.35,24.52c-.18,.41-.28,.85-.28,1.12,0,.27,0,.36,.01,.45v.02c.11,1.16,.81,1.97,1.48,2.55,.67,.59,1.46,1.05,2.15,1.48,.23,.14,.44,.27,.62,.4s.26,.3,.26,.49c0,.34-.27,.61-.61,.61H1.07v3.07H6.59c1.49,0,2.83-.82,3.4-2.08,.18-.41,.28-.85,.28-1.12,0-.27,0-.36-.01-.45v-.02c-.11-1.16-.81-1.97-1.48-2.55s-1.46-1.05-2.15-1.48c-.23-.14-.44-.27-.62-.4s-.26-.3-.26-.49c0-.34,.27-.61,.61-.61h5.74v9.2h3.68v-9.2h2.45v9.2h3.68v-9.2h1.23c.68,0,1.23,.27,1.23,.61v8.58h3.68v-9.2c0-1.69-1.65-3.07-3.68-3.07H4.75c-1.49,0-2.83,.82-3.4,2.08Z"/><path id="SMSA_Express-lshape2" class="cls-1" d="M33.57,22.44c-1.49,0-2.83,.82-3.4,2.08-.18,.41-.28,.85-.28,1.12,0,.27,0,.36,.01,.45v.02c.11,1.16,.81,1.97,1.48,2.55,.67,.59,1.46,1.05,2.15,1.48,.23,.14,.44,.27,.62,.4s.26,.3,.26,.49c0,.34-.27,.61-.61,.61h-5.74v3.07h7.36c1.49,0,2.83-.82,3.4-2.08,.18-.41,.28-.85,.28-1.12,0-.27,0-.36-.01-.45v-.02c-.11-1.16-.81-1.97-1.48-2.55-.67-.59-1.46-1.05-2.15-1.48-.23-.14-.44-.27-.62-.4s-.26-.3-.26-.49c0-.34,.27-.61,.61-.61h7.16c-.91,1.01-1.41,2.32-1.41,3.68,0,3.05,2.47,5.52,5.52,5.52,1.36,0,2.67-.51,3.68-1.41v1.41h3.68v-12.26h-20.24Zm11.65,3.07h4.91v4.91l-1.53-1.53-2.3,2.3-1.99-1.99,2.3-2.3-1.38-1.38Z"/><path id="SMSA_Express-regsymbol" class="cls-1" d="M55.03,33.51c0-.71,.57-1.19,1.23-1.19s1.23,.48,1.23,1.19-.57,1.19-1.23,1.19-1.23-.48-1.23-1.19m1.23-.13c.21,0,.27-.11,.27-.2,0-.11-.06-.2-.27-.2h-.27v.41h.27Zm-.27,.18v.65h-.22v-1.44h.53c.31,0,.46,.13,.46,.4,0,.16-.11,.29-.25,.31h0c.12,.03,.17,.13,.2,.33,.02,.13,.05,.35,.09,.4h-.25c-.06-.13-.05-.33-.1-.49-.04-.12-.1-.17-.25-.17h-.21Zm1.25-.05c0-.58-.42-1-.99-1s-.99,.42-.99,1,.42,1,.99,1,.99-.42,.99-1"/><path id="SMSA_Express-letter1" class="cls-3" d="M28.05,42.98v-5.83h3.34v.43h-2.79v2.15h2.67v.43h-2.67v2.37h2.91v.44h-3.46Z"/><path id="SMSA_Express-letter2" class="cls-3" d="M31.91,42.98l1.63-2.09-1.54-1.98h.63l1.26,1.62,1.23-1.62h.63l-1.57,1.98,1.63,2.09h-.63l-1.35-1.73-1.28,1.73h-.63Z"/><path id="SMSA_Express-letter3" class="cls-3" d="M36.86,44.51h-.51v-4.39c0-.4,0-.81-.03-1.22h.5l.02,.61c.32-.48,.73-.71,1.36-.71,1.3,0,1.86,1.04,1.86,2.13s-.56,2.13-1.86,2.13c-.58,0-1.04-.22-1.34-.68v2.12h0Zm2.66-3.57c0-.87-.38-1.72-1.38-1.72-.94,0-1.28,.75-1.28,1.72s.34,1.72,1.28,1.72c1,0,1.38-.85,1.38-1.72Z"/><path id="SMSA_Express-letter4" class="cls-3" d="M42.67,39.29c-.84,0-1.13,.68-1.13,1.39v2.3h-.51v-2.88c0-.39,0-.8-.02-1.2h.5l.03,.59c.25-.47,.67-.68,1.23-.68,.08,0,.16,0,.23,.02v.49c-.12-.02-.21-.03-.33-.03h0Z"/><path id="SMSA_Express-letter5" class="cls-3" d="M43.62,41.04c0,.92,.45,1.67,1.37,1.67,.72,0,1.05-.46,1.18-.92h.48c-.23,.85-.77,1.29-1.73,1.29-1.28,0-1.85-.92-1.85-2.06s.59-2.21,1.92-2.21,1.7,1.13,1.7,2.22h-3.07Zm.02-.37h2.52c0-.8-.39-1.48-1.19-1.48-.72,0-1.23,.53-1.33,1.48Z"/><path id="SMSA_Express-letter6" class="cls-3" d="M48.68,43.08c-.87,0-1.52-.4-1.52-1.29h.51c0,.61,.42,.92,1.03,.92,.58,0,1.02-.27,1.02-.81,0-.49-.52-.62-1.07-.77-.67-.18-1.39-.39-1.39-1.18,0-.88,.76-1.13,1.47-1.13,.82,0,1.43,.31,1.45,1.15h-.51c-.02-.48-.38-.76-.93-.76-.42,0-.94,.16-.94,.69,0,.48,.52,.62,1.07,.77,.67,.18,1.4,.37,1.4,1.16,0,.92-.73,1.26-1.59,1.26h0Z"/><path id="SMSA_Express-letter7" class="cls-3" d="M52.21,43.08c-.87,0-1.52-.4-1.52-1.29h.51c0,.61,.42,.92,1.03,.92,.58,0,1.02-.27,1.02-.81,0-.49-.53-.62-1.08-.77-.67-.18-1.39-.39-1.39-1.18,0-.88,.76-1.13,1.47-1.13,.82,0,1.43,.31,1.45,1.15h-.51c-.02-.48-.38-.76-.93-.76-.42,0-.94,.16-.94,.69,0,.48,.52,.62,1.07,.77,.67,.18,1.4,.37,1.4,1.16,0,.92-.74,1.26-1.59,1.26h0Z"/></g><rect class="cls-2" width="60" height="60"/></g></svg>