<?xml version="1.0" encoding="UTF-8"?><svg id="katman_2" xmlns="http://www.w3.org/2000/svg" viewBox="0 0 60 60"><defs><style>.cls-1{fill:#dc291e;}.cls-2{fill:none;}</style></defs><g id="katman_1"><path class="cls-1" d="M7.31,27.08c-.4-.43-.87-.72-1.33-.93s-1-.33-1.54-.33c-1.18,0-2.19,.47-3.01,1.36-.83,.93-1.25,2.09-1.25,3.52s.43,2.52,1.29,3.45,1.87,1.4,3.05,1.4c.54,0,1-.11,1.47-.29,.43-.18,.89-.51,1.33-.93v.97h2.3v-9.23h-2.31v1Zm-.61,5.57c-.47,.51-1.07,.76-1.8,.76-.69,0-1.29-.25-1.76-.79-.47-.51-.72-1.18-.72-1.98s.25-1.43,.72-1.94,1.04-.76,1.76-.76,1.33,.25,1.8,.76,.61,1.07,.61,1.87c.04,.83-.1,1.58-.61,2.08Zm16.09-5.57c-.4-.43-.87-.72-1.33-.93s-1-.33-1.54-.33c-1.18,0-2.19,.47-3.01,1.36-.83,.89-1.25,2.09-1.25,3.48s.43,2.52,1.29,3.45c.87,.93,1.87,1.4,3.05,1.4,.54,0,1-.11,1.47-.29,.43-.18,.89-.51,1.33-.93v.97h2.3v-9.2h-2.3v1.01h0Zm-.61,5.57c-.47,.51-1.07,.76-1.8,.76-.69,0-1.29-.25-1.76-.79-.47-.51-.72-1.18-.72-1.98s.25-1.43,.72-1.94,1.04-.76,1.76-.76,1.33,.25,1.8,.76c.47,.51,.61,1.07,.61,1.87,.04,.83-.11,1.58-.61,2.08Zm16.73-6.35c-.51-.33-1.07-.47-1.72-.47s-1.22,.14-1.72,.43c-.54,.29-.97,.69-1.33,1.25-.29-.54-.65-.97-1.11-1.25-.47-.29-.97-.43-1.54-.43s-1.07,.11-1.58,.33c-.47,.22-.89,.54-1.29,.97v-1.07h-2.31v9.23h2.3v-4.11c0-.89,.07-1.54,.22-1.94s.4-.72,.72-.97c.33-.22,.65-.36,1.04-.36,.36,0,.65,.11,.87,.29,.25,.18,.43,.47,.54,.83,.11,.36,.18,.97,.18,1.8v4.45h2.3v-4.17c0-.87,.07-1.51,.22-1.9s.4-.72,.69-.93c.33-.22,.69-.33,1.07-.33,.51,0,.89,.18,1.15,.54,.25,.36,.4,1.07,.4,2.12v4.67h2.3v-5.39c0-1.11-.11-1.9-.33-2.41-.18-.47-.54-.87-1.04-1.18Zm9.42,6.28c-.61,.61-1.36,.93-2.19,.93-.72,0-1.29-.22-1.76-.58-.47-.4-.76-.93-.87-1.58h7.37v-.43c0-1.51-.47-2.73-1.36-3.66-.89-.93-2.09-1.4-3.52-1.4s-2.48,.47-3.38,1.4c-.89,.93-1.36,2.09-1.36,3.52s.47,2.52,1.36,3.45c.89,.89,2.09,1.36,3.48,1.36,.93,0,1.72-.18,2.41-.51,.69-.33,1.25-.83,1.72-1.54l-1.9-.97Zm-3.85-4.24c.47-.36,1.04-.54,1.69-.54,.58,0,1.11,.14,1.54,.47,.43,.33,.76,.72,.89,1.22h-4.99c.26-.55,.55-.94,.87-1.15Zm11.85,2.08l3.12-4.35h-2.63l-1.79,2.52-1.8-2.52h-2.65l3.12,4.38-3.48,4.85h2.63l2.16-3.01,2.16,3.01h2.64l-3.48-4.89ZM15.15,25.78c-.43,0-.79,.07-1.11,.25-.33,.14-.65,.43-1.04,.87v-.79h-2.19v9.23h2.3v-4.81c0-1.76,.47-2.63,1.65-2.63,.22,0,.4,.04,.61,.11,.36-.65,.83-1.22,1.29-1.76-.5-.32-1-.47-1.5-.47Z"/><rect class="cls-2" width="60" height="60"/></g></svg>