<?xml version="1.0" encoding="UTF-8"?><svg id="katman_2" xmlns="http://www.w3.org/2000/svg" viewBox="0 0 72.03 60"><defs><style>.cls-1{fill:#179bd7;}.cls-2{fill:#253b80;}.cls-3{fill:#222d65;}.cls-4{fill:none;}</style></defs><g id="katman_1"><rect class="cls-4" width="72.03" height="60"/><rect class="cls-4" width="72.03" height="60"/><g><path class="cls-2" d="M27.01,24.29h-3.95c-.27,0-.5,.2-.54,.46l-1.6,10.13c-.03,.18,.09,.35,.27,.38,.02,0,.03,0,.05,0h1.89c.27,0,.5-.2,.54-.46l.43-2.73c.04-.27,.27-.46,.54-.46h1.25c2.6,0,4.1-1.26,4.5-3.75,.18-1.09,0-1.95-.5-2.55-.56-.66-1.56-1.01-2.88-1.01h0Zm.46,3.7c-.22,1.42-1.3,1.42-2.35,1.42h-.6l.42-2.65c.03-.16,.16-.28,.33-.28h.27c.71,0,1.39,0,1.73,.41,.21,.24,.27,.6,.19,1.1h0Zm11.35-.05h-1.89c-.16,0-.3,.12-.33,.28l-.08,.53-.13-.19c-.41-.59-1.32-.79-2.23-.79-2.09,0-3.88,1.58-4.22,3.8-.18,1.11,.08,2.17,.7,2.91,.58,.68,1.4,.96,2.38,.96,1.68,0,2.62-1.08,2.62-1.08l-.08,.53c-.03,.18,.09,.35,.27,.38,.02,0,.03,0,.05,0h1.7c.27,0,.5-.2,.54-.46l1.02-6.47c.03-.18-.09-.35-.27-.38-.02,0-.03,0-.05,0h0Zm-2.64,3.68c-.18,1.08-1.04,1.81-2.13,1.81-.55,0-.99-.18-1.27-.51-.28-.33-.39-.8-.3-1.33,.17-1.07,1.04-1.82,2.12-1.82,.54,0,.97,.18,1.26,.52,.29,.34,.4,.81,.32,1.34h0Zm12.71-3.68h-1.9c-.18,0-.35,.09-.45,.24l-2.62,3.86-1.11-3.71c-.07-.23-.28-.39-.53-.39h-1.87c-.18,0-.33,.15-.33,.33,0,.04,0,.07,.02,.11l2.09,6.14-1.97,2.78c-.11,.15-.07,.35,.08,.46,.06,.04,.12,.06,.19,.06h1.9c.18,0,.35-.09,.45-.24l6.32-9.12c.1-.15,.07-.35-.08-.46-.06-.04-.12-.06-.19-.06h0Z"/><path class="cls-1" d="M55.19,24.29h-3.95c-.27,0-.5,.2-.54,.46l-1.6,10.13c-.03,.18,.09,.35,.27,.38,.02,0,.03,0,.05,0h2.03c.19,0,.35-.14,.38-.32l.45-2.87c.04-.27,.27-.46,.54-.46h1.25c2.6,0,4.1-1.26,4.5-3.75,.18-1.09,0-1.95-.5-2.55-.56-.66-1.56-1.01-2.88-1.01h0Zm.46,3.7c-.22,1.42-1.3,1.42-2.35,1.42h-.6l.42-2.65c.02-.16,.16-.28,.32-.28h.27c.71,0,1.39,0,1.73,.41,.21,.24,.27,.6,.19,1.1h0Zm11.35-.05h-1.89c-.16,0-.3,.12-.32,.28l-.08,.53-.13-.19c-.41-.59-1.32-.79-2.23-.79-2.09,0-3.87,1.58-4.22,3.8-.18,1.11,.08,2.17,.7,2.91,.58,.68,1.4,.96,2.38,.96,1.68,0,2.62-1.08,2.62-1.08l-.08,.53c-.03,.18,.09,.35,.27,.38,.02,0,.04,0,.05,0h1.7c.27,0,.5-.2,.54-.46l1.02-6.47c.03-.18-.1-.35-.28-.38-.02,0-.03,0-.05,0h0Zm-2.64,3.68c-.18,1.08-1.04,1.81-2.13,1.81-.55,0-.99-.18-1.27-.51-.28-.33-.38-.8-.3-1.33,.17-1.07,1.04-1.82,2.12-1.82,.54,0,.97,.18,1.26,.52,.29,.34,.4,.81,.32,1.34Zm4.87-7.06l-1.62,10.31c-.03,.18,.09,.35,.27,.38,.02,0,.03,0,.05,0h1.63c.27,0,.5-.2,.54-.46l1.6-10.13c.03-.18-.09-.35-.27-.38-.02,0-.03,0-.05,0h-1.82c-.16,0-.3,.12-.32,.28Z"/><path class="cls-2" d="M4.52,37.23l.3-1.92-.67-.02H.94l2.23-14.16c.01-.09,.09-.16,.18-.15h5.42c1.8,0,3.04,.37,3.69,1.11,.3,.35,.5,.71,.59,1.11,.1,.42,.1,.92,0,1.53v.43l.3,.17c.23,.12,.44,.28,.62,.47,.26,.3,.43,.67,.5,1.12,.07,.46,.05,1.01-.07,1.62-.14,.71-.36,1.33-.67,1.84-.27,.45-.63,.85-1.05,1.16-.4,.29-.88,.5-1.42,.64-.52,.14-1.12,.21-1.77,.21h-.42c-.3,0-.59,.11-.82,.3-.23,.2-.38,.47-.43,.77l-.03,.17-.53,3.38-.02,.12s-.02,.06-.03,.07c-.02,.01-.04,.02-.06,.02h-2.6Z"/><path class="cls-1" d="M13.64,24.82c-.02,.1-.03,.21-.06,.32-.71,3.67-3.16,4.93-6.28,4.93h-1.59c-.38,0-.7,.28-.76,.65l-.81,5.16-.23,1.46c-.04,.22,.12,.43,.34,.47,.02,0,.04,0,.06,0h2.82c.33,0,.62-.24,.67-.57l.03-.14,.53-3.37,.03-.18c.05-.33,.34-.57,.67-.57h.42c2.73,0,4.87-1.11,5.49-4.32,.26-1.34,.13-2.46-.56-3.25-.22-.24-.48-.45-.77-.59h0Z"/><path class="cls-3" d="M12.89,24.52c-.23-.07-.46-.12-.69-.15-.46-.07-.93-.11-1.4-.1H6.55c-.33,0-.62,.24-.67,.57l-.9,5.72-.03,.17c.06-.38,.38-.65,.76-.65h1.59c3.12,0,5.57-1.27,6.28-4.93,.02-.11,.04-.21,.06-.32-.19-.1-.38-.18-.59-.25-.05-.02-.11-.03-.16-.05h0Z"/><path class="cls-2" d="M5.88,24.84c.05-.33,.34-.57,.67-.57h4.25c.5,0,.97,.03,1.4,.1,.29,.05,.58,.11,.86,.2,.21,.07,.41,.15,.59,.25,.21-1.36,0-2.28-.73-3.11-.81-.92-2.27-1.31-4.13-1.31H3.35c-.38,0-.71,.28-.77,.65L.33,35.35c-.04,.25,.13,.49,.39,.53,.02,0,.05,0,.07,0h3.34l.84-5.33,.9-5.72Z"/></g></g></svg>