<?xml version="1.0" encoding="UTF-8"?><svg id="katman_2" xmlns="http://www.w3.org/2000/svg" viewBox="0 0 62.41 60"><defs><style>.cls-1{fill:#ca3432;}.cls-1,.cls-2{fill-rule:evenodd;}.cls-3{fill:none;}</style></defs><g id="katman_1"><rect class="cls-3" width="62.41" height="60"/><rect class="cls-3" width="62.41" height="60"/><g><path class="cls-2" d="M15.48,26.86h2.75v7.74h2.29v-7.74h2.75v-1.96h-7.8v1.96Zm5.7,7.74h2.4l.69-1.96h2.8l.66,1.96h2.37l-3.34-9.7h-2.5l-3.08,9.7Zm5.23-3.72h-1.67l.84-2.33,.83,2.33Zm3.88,3.72h2.21v-3.49h1.59c.34,0,.73-.06,.92,.21s.18,.75,.17,1.24c0,.49,0,1,.11,1.36,.11,.36,.31,.68,.6,.68h2c-.23-.24-.39-.54-.47-.86-.08-.32-.07-.68-.05-1.07,.01-.39,.03-.82-.01-1.17-.05-.35-.15-.63-.33-.85-.18-.22-.41-.38-.68-.46,.42-.3,.78-.71,.99-1.13,.21-.43,.29-.88,.32-1.32s0-.89-.13-1.31c-.14-.42-.4-.82-.76-1.09-.36-.27-.8-.42-1.25-.43h-5.22v9.7h0Zm4.78-7.55c.27,.18,.43,.5,.42,.82,0,.34-.18,.65-.45,.85-.28,.19-.65,.15-1,.15h-1.54v-1.92h1.63c.32,0,.67-.08,.94,.09h0Zm3.74-.43c-.33,.49-.58,1.07-.71,1.8-.13,.74-.15,1.64-.03,2.42,.12,.78,.38,1.45,.7,1.97s.69,.89,1.1,1.2,.84,.57,1.34,.72c.5,.14,1.02,.18,1.53,.11,.49-.07,.93-.25,1.27-.41,.34-.16,.59-.29,.81-.44l.39,.6h1.44v-5.44h-4.11v1.9h1.93c.08,.33,.03,.69-.14,.98-.17,.3-.45,.54-.86,.7-.41,.17-.94,.27-1.45,.11-.51-.16-1.01-.57-1.34-1.03-.33-.47-.49-1-.56-1.58-.07-.58-.05-1.22,.09-1.78s.4-1.04,.73-1.38c.33-.34,.72-.55,1.22-.64s1.09-.06,1.49,.16c.4,.22,.6,.64,.71,.9s.15,.37,.15,.49h2.07c-.03-.43-.15-.85-.4-1.33-.25-.48-.62-1.02-1.14-1.4s-1.21-.6-1.84-.68c-.58-.08-1.17-.04-1.74,.12-.52,.15-.99,.38-1.43,.7-.44,.32-.86,.73-1.19,1.22h0Zm15.47,7.98v-1.96h-4.56v-2.25h3.92v-1.78h-3.92v-1.75h4.56v-1.96h-6.84v9.7h6.84Zm.33-7.74h2.75v7.74h2.29v-7.74h2.75v-1.96h-7.8v1.96h0Zm6.15,7.3h.13v-.02s-.04,0-.05-.03l-.1-.16c.09-.03,.13-.15,.03-.21-.04-.02-.08-.03-.13-.03h-.23v.02s.07,.01,.06,.05c0,.11,0,.22,0,.34-.02,.03-.03,.02-.06,.02v.02h.23v-.02s-.07-.01-.06-.05v-.14h.06l.12,.21h0Zm-.19-.24v-.18c.06,0,.14,0,.14,.07,0,.03,0,.1-.07,.11-.02,0-.05,0-.08,0h0Zm.05,.44c.08,0,.17-.02,.25-.08,.2-.17,.23-.38,.1-.59-.17-.21-.38-.24-.6-.1-.2,.17-.23,.38-.1,.59,.1,.13,.23,.18,.35,.18Zm0-.05c-.07,0-.15-.02-.22-.07-.18-.15-.21-.34-.09-.53,.15-.18,.34-.21,.53-.09,.18,.15,.21,.34,.09,.53-.09,.12-.2,.16-.31,.16h0Z"/><path class="cls-1" d="M7.8,28.03c-.34-.2-.74-.3-1.13-.3s-.79,.11-1.13,.3c-.34,.2-.63,.49-.83,.83-.2,.34-.3,.74-.3,1.13,0,.4,.11,.79,.3,1.13,.2,.34,.49,.63,.83,.83s.74,.3,1.13,.3,.79-.11,1.13-.3,.63-.49,.83-.83c.2-.34,.3-.74,.3-1.13,0-.4-.11-.79-.3-1.13-.2-.34-.49-.63-.83-.83Z"/><path class="cls-1" d="M12.41,26.67c-.58-1.01-1.43-1.85-2.43-2.43s-2.17-.89-3.33-.89-2.32,.31-3.33,.89c-1.01,.59-1.85,1.42-2.43,2.43-.58,1.01-.89,2.17-.89,3.33s.31,2.32,.89,3.33c.59,1.01,1.42,1.85,2.43,2.43,1.01,.58,2.16,.89,3.33,.89,1.16,0,2.32-.31,3.33-.89,1.01-.58,1.85-1.43,2.43-2.43s.89-2.17,.89-3.33-.31-2.32-.89-3.33Zm-1.95,5.53c-.39,.67-.94,1.22-1.61,1.61-.67,.38-1.42,.59-2.19,.59-.76,0-1.53-.2-2.19-.59-.66-.38-1.22-.94-1.61-1.61s-.59-1.43-.59-2.19,.2-1.53,.59-2.19,.94-1.22,1.61-1.61c.67-.38,1.42-.59,2.19-.59,.77,0,1.53,.2,2.19,.59,.67,.39,1.22,.94,1.61,1.61,.38,.67,.59,1.42,.59,2.19,0,.77-.2,1.53-.59,2.19Z"/></g></g></svg>