<?xml version="1.0" encoding="UTF-8"?><svg id="katman_2" xmlns="http://www.w3.org/2000/svg" viewBox="0 0 72.03 60"><defs><style>.cls-1{fill:#e9b040;}.cls-1,.cls-2,.cls-3,.cls-4{fill-rule:evenodd;}.cls-2{fill:#1b3771;}.cls-3{fill:#fff;}.cls-4{fill:#cc2131;}.cls-5{fill:none;}</style></defs><g id="katman_1"><rect class="cls-5" width="72.03" height="60"/><rect class="cls-5" width="72.03" height="60"/><g><path class="cls-1" d="M37.16,40.75c2.36,2.17,5.52,3.49,8.97,3.49,7.39,0,13.38-6.03,13.38-13.45s-5.99-13.47-13.38-13.47c-3.44,0-6.61,1.32-8.97,3.49-2.7,2.47-4.41,6.03-4.41,9.98,0,3.95,1.71,7.51,4.41,9.96h0Z"/><path class="cls-1" d="M57.72,38.27c0-.23,.18-.42,.42-.42,.25,0,.44,.18,.44,.42,0,.25-.18,.44-.44,.44-.23,0-.42-.18-.42-.44Zm.42,.35c.18,0,.35-.16,.35-.35s-.16-.32-.35-.32c-.16,0-.32,.14-.32,.32s.16,.35,.32,.35Zm-.05-.14h-.09v-.39h.16s.07,0,.09,.02c.05,.02,.05,.05,.05,.09s-.02,.09-.07,.09l.09,.18h-.12l-.05-.16h-.07v-.07h.09s.02-.02,.02-.05,0-.02-.02-.05h-.09v.32Z"/><path class="cls-4" d="M41.48,29.35c-.05-.49-.14-.95-.23-1.43h-8.18c.09-.49,.23-.95,.37-1.41h7.42c-.16-.49-.35-.96-.55-1.43h-6.29c.23-.49,.49-.97,.76-1.43h4.74c-.3-.49-.64-.96-1.02-1.41h-2.7c.42-.51,.87-.99,1.36-1.43-2.38-2.15-5.52-3.49-8.99-3.49-7.37,0-13.38,6.03-13.38,13.47s6.01,13.45,13.38,13.45c3.47,0,6.61-1.32,8.99-3.49,.48-.44,.93-.91,1.34-1.41h-2.7c-.37-.46-.69-.92-1.02-1.43h4.74c.3-.46,.56-.94,.79-1.43h-6.29c-.21-.46-.42-.92-.58-1.41h7.42c.16-.46,.28-.95,.39-1.43,.09-.46,.18-.95,.23-1.43,.05-.47,.07-.94,.07-1.41,0-.48-.02-.97-.07-1.43h0Z"/><path class="cls-3" d="M57.72,33.91c0-.25,.18-.44,.42-.44,.25,0,.44,.18,.44,.44,0,.23-.18,.44-.44,.44-.23,0-.42-.21-.42-.44Zm.42,.32c.18,0,.35-.14,.35-.32s-.16-.32-.35-.32c-.16,0-.32,.14-.32,.32s.16,.32,.32,.32Zm-.05-.14h-.09v-.37h.25s.05,.07,.05,.12c0,.02-.02,.07-.07,.09l.09,.16h-.12l-.05-.14h-.07v-.07h.05s.05,0,.05-.02c.02,0,.02-.02,.02-.05,0,0,0-.02-.02-.02,0-.02-.02,0-.05,0h-.05v.3Z"/><path class="cls-2" d="M32.6,34.67c-.44,.12-.76,.18-1.09,.18-.69,0-1.11-.44-1.11-1.23,0-.16,.02-.32,.05-.51l.09-.53,.07-.44,.62-3.79h1.39l-.16,.83h.88l-.21,1.39h-.88l-.37,2.26c-.02,.12-.02,.18-.02,.23,0,.3,.14,.42,.49,.42,.16,0,.3-.02,.44-.05l-.18,1.22h0Zm4.48-.05c-.51,.14-.97,.21-1.48,.21-1.57,0-2.47-.83-2.47-2.47,0-1.92,1.06-3.3,2.54-3.3,1.18,0,1.94,.79,1.94,2.01,0,.42-.05,.81-.16,1.36h-2.89c-.02,.09-.02,.14-.02,.18,0,.65,.44,.97,1.27,.97,.53,0,.99-.12,1.5-.35l-.23,1.39Zm-.86-3.3v-.28c0-.46-.25-.72-.69-.72-.46,0-.79,.35-.92,.99h1.62Zm-14.72,3.42h-1.43l.83-5.25-1.87,5.25h-.99l-.12-5.22-.88,5.22h-1.41l1.13-6.82h2.1l.05,4.21,1.41-4.21h2.31l-1.13,6.82h0Zm3.49-2.47c-.14-.02-.18-.02-.28-.02-.83,0-1.25,.32-1.25,.83,0,.35,.21,.58,.53,.58,.69,0,.97-.58,.99-1.39h0Zm1.16,2.47h-1.25l.02-.58c-.32,.44-.76,.67-1.53,.67-.69,0-1.29-.62-1.29-1.52,0-.25,.05-.48,.12-.72,.23-.86,1.09-1.39,2.4-1.41,.16,0,.42,0,.65,.02,.05-.18,.05-.25,.05-.37,0-.37-.3-.49-.97-.49-.42,0-.88,.07-1.2,.18l-.21,.05-.09,.02,.21-1.25c.67-.21,1.16-.3,1.69-.3,1.25,0,1.92,.58,1.92,1.64,0,.28,.02,.49-.07,1.09l-.32,1.99-.05,.35-.02,.28-.02,.18-.02,.16h0Zm17.91-5.5c.42,0,.79,.12,1.29,.37l.25-1.48c-.14-.07-.18-.07-.37-.14l-.58-.16c-.18-.05-.42-.07-.67-.07-.72,0-1.13,.02-1.57,.28-.23,.16-.53,.37-.86,.74l-.18-.05-1.48,1.04,.07-.58h-1.53l-.9,5.55h1.46l.53-2.98s.21-.42,.3-.55c.28-.35,.51-.35,.81-.35h.12c-.05,.35-.07,.71-.07,1.06,0,1.8,1.02,2.93,2.59,2.93,.39,0,.74-.05,1.27-.18l.25-1.57c-.46,.25-.88,.37-1.23,.37-.85,0-1.36-.65-1.36-1.66,0-1.5,.76-2.57,1.85-2.57h0Zm12.27-1.32l-.32,1.94c-.35-.53-.76-.79-1.32-.79-.76,0-1.48,.44-1.92,1.27v-.02l-.92-.55,.09-.58h-1.55l-.88,5.55h1.43l.49-2.98s.37-.42,.46-.55c.23-.28,.46-.32,.65-.35-.16,.46-.25,1.02-.25,1.64,0,1.39,.72,2.31,1.78,2.31,.53,0,.95-.18,1.34-.62l-.07,.55h1.36l1.11-6.82h-1.48Zm-1.78,5.5c-.49,0-.74-.37-.74-1.09,0-1.09,.46-1.87,1.13-1.87,.51,0,.76,.39,.76,1.09,0,1.11-.46,1.87-1.16,1.87h0Zm-6.68-1.16c-.14-.02-.18-.02-.28-.02-.83,0-1.25,.32-1.25,.83,0,.35,.21,.58,.53,.58,.69,0,.97-.58,.99-1.39Zm1.16,2.47h-1.27l.05-.58c-.32,.44-.76,.67-1.52,.67-.72,0-1.34-.6-1.34-1.52,0-1.32,.99-2.13,2.56-2.13,.16,0,.42,0,.62,.02,.05-.18,.07-.25,.07-.37,0-.37-.3-.49-.99-.49-.39,0-.88,.07-1.2,.18l-.18,.05-.09,.02,.21-1.25c.67-.21,1.16-.3,1.69-.3,1.25,0,1.89,.58,1.89,1.64,0,.28,.05,.49-.07,1.09l-.3,1.99-.05,.35-.05,.28-.02,.18v.16h0Zm-19.85-4.37c.28,0,.67,.02,1.09,.09l.21-1.29c-.42-.05-.97-.12-1.29-.12-1.62,0-2.15,.88-2.15,1.89,0,.67,.3,1.16,1.09,1.52,.58,.28,.67,.32,.67,.58,0,.35-.3,.55-.86,.55-.44,0-.86-.07-1.32-.23l-.16,1.27,.02,.02,.28,.05c.09,.02,.21,.05,.37,.07,.35,.02,.65,.05,.83,.05,1.62,0,2.29-.62,2.29-1.85,0-.76-.37-1.22-1.09-1.55-.62-.28-.69-.32-.69-.58s.28-.49,.72-.49h0Z"/><path class="cls-3" d="M46.01,27.69l-.25,1.48c-.51-.25-.88-.37-1.29-.37-1.09,0-1.85,1.06-1.85,2.57,0,1.04,.51,1.66,1.36,1.66,.35,0,.76-.12,1.22-.35l-.25,1.55c-.53,.14-.88,.21-1.27,.21-1.57,0-2.54-1.13-2.54-2.96,0-2.43,1.34-4.14,3.26-4.14,.25,0,.48,.02,.67,.07l.58,.14c.19,.07,.23,.09,.37,.14h0Zm-4.67,1.02h-.14c-.48,0-.76,.23-1.2,.9l.14-.86h-1.32l-.9,5.55h1.46c.53-3.4,.67-3.97,1.36-3.97h.09c.14-.67,.32-1.16,.55-1.59l-.05-.02h0Zm-8.37,5.52c-.39,.14-.72,.18-1.04,.18-.74,0-1.16-.42-1.16-1.22,0-.14,.02-.32,.05-.49l.09-.55,.07-.44,.62-3.79h1.43l-.16,.83h.74l-.18,1.36h-.74l-.39,2.31c-.02,.09-.02,.16-.02,.23,0,.28,.14,.39,.49,.39,.16,0,.3,0,.39-.05l-.18,1.22h0Zm-5.57-3.72c0,.69,.32,1.18,1.09,1.55,.6,.28,.69,.37,.69,.6,0,.35-.25,.51-.83,.51-.44,0-.83-.07-1.29-.21l-.21,1.27,.07,.02,.25,.05c.09,.02,.21,.05,.39,.05,.32,.05,.6,.05,.79,.05,1.52,0,2.24-.58,2.24-1.85,0-.76-.3-1.2-1.02-1.55-.62-.28-.69-.35-.69-.6,0-.3,.25-.44,.72-.44,.28,0,.67,.02,1.04,.07l.21-1.27c-.37-.07-.95-.12-1.27-.12-1.62,0-2.2,.85-2.17,1.87h0Zm29.67,3.79h-1.36l.07-.53c-.39,.42-.81,.6-1.34,.6-1.06,0-1.76-.9-1.76-2.29,0-1.85,1.09-3.42,2.36-3.42,.58,0,.99,.25,1.39,.76l.32-1.94h1.43l-1.11,6.82h0Zm-2.13-1.29c.67,0,1.13-.79,1.13-1.87,0-.72-.25-1.09-.76-1.09-.65,0-1.13,.76-1.13,1.85,0,.74,.25,1.11,.76,1.11h0Zm-17.54,1.18c-.51,.16-.97,.23-1.5,.23-1.62,0-2.45-.85-2.45-2.5,0-1.89,1.06-3.3,2.52-3.3,1.2,0,1.96,.79,1.96,2.01,0,.42-.05,.81-.18,1.39h-2.87c-.02,.07-.02,.12-.02,.16,0,.65,.44,.97,1.27,.97,.53,0,.99-.09,1.5-.35l-.23,1.39h0Zm-.81-3.3v-.28c0-.46-.25-.72-.69-.72-.46,0-.79,.35-.92,.99h1.62Zm-14.72,3.42h-1.43l.83-5.25-1.87,5.25h-.99l-.12-5.2-.88,5.2h-1.34l1.13-6.82h2.08l.07,4.23,1.39-4.23h2.26l-1.13,6.82h0Zm3.58-2.47c-.14,0-.21-.02-.32-.02-.81,0-1.22,.3-1.22,.85,0,.35,.18,.55,.51,.55,.6,0,1.02-.55,1.04-1.39h0Zm1.06,2.47h-1.2l.02-.58c-.37,.46-.86,.67-1.53,.67-.79,0-1.32-.6-1.32-1.5,0-1.36,.92-2.15,2.54-2.15,.16,0,.37,.02,.6,.05,.05-.18,.05-.25,.05-.35,0-.37-.25-.51-.92-.51-.42,0-.88,.05-1.2,.14l-.21,.07-.14,.02,.21-1.25c.72-.21,1.2-.28,1.73-.28,1.25,0,1.92,.55,1.92,1.62,0,.28-.02,.49-.12,1.11l-.32,1.96-.05,.35-.02,.28-.02,.21-.02,.14h0Zm21.82-2.47c-.16,0-.23-.02-.32-.02-.83,0-1.25,.3-1.25,.85,0,.35,.21,.55,.53,.55,.58,0,1.02-.55,1.04-1.39h0Zm1.06,2.47h-1.2l.02-.58c-.37,.46-.85,.67-1.52,.67-.79,0-1.32-.6-1.32-1.5,0-1.36,.92-2.15,2.54-2.15,.16,0,.37,.02,.58,.05,.05-.18,.07-.25,.07-.35,0-.37-.25-.51-.92-.51-.42,0-.9,.05-1.23,.14l-.18,.07-.14,.02,.21-1.25c.72-.21,1.2-.28,1.73-.28,1.25,0,1.89,.55,1.89,1.62,0,.28,0,.49-.12,1.11l-.3,1.96-.05,.35-.05,.28-.02,.21v.14h0Zm3.88-5.59h-.14c-.48,0-.76,.23-1.2,.9l.14-.86h-1.32l-.88,5.55h1.43c.53-3.4,.67-3.97,1.36-3.97h.09c.14-.67,.32-1.16,.55-1.59l-.05-.02h0Z"/></g></g></svg>