<?xml version="1.0" encoding="UTF-8"?><svg id="katman_2" xmlns="http://www.w3.org/2000/svg" viewBox="0 0 68.75 15.17"><defs><style>.cls-1{fill:#d50029;}.cls-2{fill:#fecc00;}</style></defs><g id="katman_1"><g><path class="cls-2" d="M68.75,0V15.17H0V0H68.75Z"/><path class="cls-1" d="M22.17,6.34c-.3,.41-.8,1.11-1.11,1.53-.16,.21-.44,.59,.49,.59h4.9s.79-1.07,1.45-1.97c.9-1.22,.08-3.76-3.14-3.76H12.09l-2.2,2.98h11.97c.6,0,.6,.23,.3,.63h0Zm-3.6,2.85c-.93,0-.65-.38-.49-.59,.31-.41,.82-1.11,1.12-1.52,.3-.4,.3-.63-.3-.63h-5.48l-4.41,6h10.76c3.55,0,5.53-2.42,6.14-3.25h-7.33Zm7,3.25h6.31l2.39-3.25h-6.31l-2.39,3.25h0ZM41.85,2.72l-2.42,3.29h-2.82l2.42-3.29h-6.31l-4.22,5.73h15.44l4.22-5.73h-6.31Zm-7.16,9.72h6.31l2.39-3.25h-6.31l-2.39,3.25ZM0,10.48v.69H8.79l.51-.69H0Zm10.24-1.28H0v.69H9.73l.51-.69ZM0,12.45H7.85l.51-.69H0v.69Zm59.49-1.28h9.26v-.69h-8.75l-.51,.69Zm-.94,1.28h10.2v-.69h-9.7l-.51,.69Zm2.39-3.25l-.51,.69h8.32v-.69h-7.81Zm-8.26-.74l4.22-5.73h-6.68l-4.22,5.73h6.69Zm-7.23,.74s-.46,.63-.69,.93c-.79,1.07-.09,2.32,2.49,2.32h10.13l2.39-3.25h-14.34Z"/></g></g></svg>