<?xml version="1.0" encoding="UTF-8"?><svg id="katman_2" xmlns="http://www.w3.org/2000/svg" viewBox="0 0 60 60"><defs><style>.cls-1{fill:none;}</style></defs><g id="katman_1"><rect class="cls-1" width="60" height="60"/><rect class="cls-1" width="60" height="60"/><path d="M36.85,27.17c-.01-1.87,.84-3.28,2.55-4.33-.96-1.37-2.41-2.13-4.32-2.27-1.81-.14-3.79,1.06-4.51,1.06-.77,0-2.52-1-3.9-1-2.85,.05-5.87,2.27-5.87,6.79,0,1.34,.24,2.72,.73,4.14,.65,1.87,3.01,6.46,5.47,6.39,1.29-.03,2.19-.91,3.87-.91s2.46,.91,3.9,.91c2.48-.04,4.61-4.21,5.23-6.09-3.33-1.57-3.15-4.59-3.15-4.69h0Zm-2.89-8.38c1.39-1.65,1.26-3.16,1.22-3.7-1.23,.07-2.65,.84-3.46,1.78-.89,1.01-1.42,2.26-1.31,3.67,1.33,.1,2.55-.58,3.55-1.75Z"/></g></svg>