<?xml version="1.0" encoding="UTF-8"?><svg id="katman_2" xmlns="http://www.w3.org/2000/svg" viewBox="0 0 60.04 60"><defs><style>.cls-1{fill:#e53238;}.cls-2{fill:#f5af02;}.cls-3{fill:#86b817;}.cls-4{fill:none;}.cls-5{fill:#0064d2;}</style></defs><g id="katman_1"><rect class="cls-4" width="60" height="60"/><rect class="cls-4" width="60" height="60"/><g><path class="cls-1" d="M7.76,22.02c-4.24,0-7.76,1.8-7.76,7.22,0,4.29,2.37,7,7.87,7,6.47,0,6.89-4.26,6.89-4.26h-3.14s-.67,2.3-3.94,2.3c-2.66,0-4.58-1.8-4.58-4.32H15.09v-1.58c0-2.5-1.58-6.34-7.33-6.34h0Zm-.11,2.02c2.54,0,4.26,1.55,4.26,3.88H3.17c0-2.47,2.26-3.88,4.48-3.88Z"/><path class="cls-5" d="M15.09,16.77v16.74c0,.95-.07,2.28-.07,2.28h2.99s.11-.96,.11-1.83c0,0,1.48,2.31,5.5,2.31,4.23,0,7.11-2.94,7.11-7.15,0-3.92-2.64-7.07-7.1-7.07-4.18,0-5.47,2.26-5.47,2.26v-7.55h-3.06Zm7.76,7.36c2.87,0,4.7,2.13,4.7,5,0,3.07-2.11,5.08-4.68,5.08-3.07,0-4.72-2.4-4.72-5.05,0-2.47,1.48-5.02,4.7-5.02h0Z"/><path class="cls-2" d="M38.16,22.02c-6.37,0-6.78,3.49-6.78,4.05h3.17s.17-2.04,3.39-2.04c2.09,0,3.72,.96,3.72,2.8v.66h-3.72c-4.94,0-7.55,1.44-7.55,4.37s2.41,4.45,5.67,4.45c4.44,0,5.87-2.45,5.87-2.45,0,.98,.08,1.94,.08,1.94h2.82s-.11-1.19-.11-1.95v-6.59c0-4.32-3.49-5.23-6.56-5.23Zm3.5,7.44v.87c0,1.14-.7,3.98-4.85,3.98-2.27,0-3.24-1.13-3.24-2.45,0-2.39,3.28-2.41,8.09-2.41h0Z"/><path class="cls-3" d="M43.01,22.56h3.57l5.12,10.26,5.11-10.26h3.23l-9.3,18.26h-3.39l2.68-5.09-7.02-13.17h0Z"/></g></g></svg>