<?xml version="1.0" encoding="UTF-8"?><svg id="katman_2" xmlns="http://www.w3.org/2000/svg" viewBox="0 0 60 60"><defs><style>.cls-1{fill:#f90;}.cls-1,.cls-2{fill-rule:evenodd;}.cls-3{fill:none;}</style></defs><g id="katman_1"><rect class="cls-3" width="60" height="60"/><rect class="cls-3" width="60" height="60"/><g><path class="cls-1" d="M37.17,39.07c-3.45,2.55-8.47,3.91-12.8,3.91-6.07,0-11.5-2.24-15.64-5.96-.31-.29-.04-.69,.36-.46,4.45,2.59,9.96,4.14,15.64,4.14,3.83,0,8.05-.79,11.94-2.45,.59-.23,1.07,.4,.5,.82h0Z"/><path class="cls-1" d="M38.62,37.42c-.44-.56-2.93-.27-4.04-.13-.33,.04-.4-.25-.08-.46,1.99-1.4,5.23-.98,5.61-.52s-.1,3.72-1.97,5.27c-.29,.23-.56,.1-.44-.21,.42-1.05,1.36-3.37,.92-3.95Z"/><path class="cls-2" d="M34.64,27.01v-1.36c0-.21,.15-.33,.33-.33h6.07c.19,0,.36,.15,.36,.33v1.15c0,.19-.17,.44-.46,.86l-3.14,4.48c1.17-.02,2.41,.15,3.45,.73,.23,.13,.29,.33,.31,.52v1.44c0,.21-.21,.44-.44,.31-1.86-.98-4.35-1.09-6.4,.02-.21,.1-.44-.1-.44-.31v-1.38c0-.21,0-.59,.23-.92l3.64-5.21h-3.16c-.19,0-.36-.15-.36-.33h0Zm-22.11,8.43h-1.84c-.17-.02-.31-.15-.33-.31v-9.45c0-.19,.17-.33,.36-.33h1.72c.19,0,.31,.15,.33,.31v1.23h.04c.44-1.19,1.3-1.76,2.43-1.76s1.88,.56,2.38,1.76c.44-1.19,1.46-1.76,2.55-1.76,.77,0,1.61,.31,2.13,1.05,.59,.79,.46,1.95,.46,2.97v5.98c0,.19-.17,.33-.36,.33h-1.82c-.19-.02-.33-.17-.33-.33v-5.02c0-.4,.04-1.4-.04-1.78-.15-.63-.54-.82-1.09-.82-.44,0-.92,.29-1.11,.77s-.17,1.28-.17,1.82v5.02c0,.19-.17,.33-.36,.33h-1.84c-.19-.02-.33-.17-.33-.33v-5.02c0-1.05,.17-2.61-1.13-2.61s-1.28,1.51-1.28,2.61v5.02c-.02,.17-.17,.31-.38,.31h0Zm34.09-10.31c2.74,0,4.22,2.34,4.22,5.33s-1.63,5.19-4.22,5.19-4.14-2.34-4.14-5.27c-.02-2.95,1.46-5.25,4.14-5.25h0Zm0,1.95c-1.36,0-1.44,1.86-1.44,3.01s-.02,3.62,1.42,3.62,1.51-1.99,1.51-3.2c0-.79-.04-1.76-.27-2.51-.21-.67-.63-.92-1.21-.92h0Zm7.76,8.37h-1.84c-.19-.02-.33-.17-.33-.33v-9.47c.02-.17,.17-.31,.36-.31h1.72c.17,0,.29,.13,.33,.27v1.44h.04c.52-1.3,1.23-1.9,2.51-1.9,.82,0,1.63,.29,2.15,1.11,.48,.75,.48,2.03,.48,2.95v5.96c-.02,.17-.17,.29-.36,.29h-1.84c-.17-.02-.31-.15-.33-.29v-5.15c0-1.05,.13-2.55-1.15-2.55-.44,0-.86,.29-1.07,.75-.25,.59-.29,1.15-.29,1.8v5.1c-.02,.19-.19,.33-.38,.33h0Zm-24.58-4.52c0,.71,.02,1.32-.33,1.97-.29,.52-.75,.84-1.28,.84-.71,0-1.13-.54-1.13-1.34,0-1.57,1.4-1.86,2.74-1.86v.4Zm1.86,4.5c-.13,.1-.29,.13-.44,.04-.61-.5-.73-.75-1.07-1.23-1,1.02-1.74,1.34-3.03,1.34-1.55,0-2.76-.96-2.76-2.87,0-1.51,.82-2.51,1.97-3.01,1-.44,2.41-.52,3.47-.65v-.23c0-.44,.04-.96-.23-1.34-.23-.33-.65-.48-1.02-.48-.71,0-1.34,.36-1.48,1.11-.04,.17-.15,.33-.31,.33l-1.78-.19c-.15-.04-.31-.15-.27-.38,.42-2.18,2.36-2.82,4.12-2.82,.9,0,2.07,.23,2.78,.92,.9,.84,.82,1.97,.82,3.18v2.87c0,.86,.36,1.23,.69,1.72,.13,.17,.15,.38,0,.48-.4,.31-1.07,.9-1.44,1.21h0ZM5.65,30.92c0,.71,.02,1.32-.33,1.97-.29,.52-.75,.84-1.28,.84-.71,0-1.13-.54-1.13-1.34,0-1.57,1.4-1.86,2.74-1.86v.4Zm1.84,4.5c-.13,.1-.29,.13-.44,.04-.61-.5-.73-.75-1.07-1.23-1,1.02-1.74,1.34-3.03,1.34-1.55,0-2.76-.96-2.76-2.87,0-1.51,.82-2.51,1.97-3.01,1-.44,2.41-.52,3.47-.65v-.23c0-.44,.04-.96-.23-1.34-.23-.33-.65-.48-1.02-.48-.71,0-1.34,.36-1.48,1.11-.04,.17-.15,.33-.31,.33l-1.78-.19c-.15-.04-.31-.15-.27-.38,.42-2.18,2.36-2.82,4.12-2.82,.9,0,2.07,.23,2.78,.92,.9,.84,.82,1.97,.82,3.18v2.87c0,.86,.36,1.23,.69,1.72,.13,.17,.15,.38,0,.48-.4,.31-1.07,.9-1.44,1.21h0Z"/></g></g></svg>